<svg width="512" height="56" viewBox="0 0 512 56" fill="none" xmlns="http://www.w3.org/2000/svg">
<path d="M88.144 40.48C85.136 40.48 82.736 39.792 80.944 38.416C79.152 37.008 78.128 35.024 77.872 32.464H81.568C81.792 34.032 82.48 35.232 83.632 36.064C84.784 36.896 86.32 37.312 88.24 37.312C89.936 37.312 91.264 36.992 92.224 36.352C93.184 35.712 93.664 34.8 93.664 33.616C93.664 32.784 93.392 32.064 92.848 31.456C92.304 30.816 91.216 30.288 89.584 29.872L85.648 28.864C83.408 28.288 81.728 27.408 80.608 26.224C79.488 25.008 78.928 23.568 78.928 21.904C78.928 19.792 79.712 18.128 81.28 16.912C82.848 15.664 84.976 15.04 87.664 15.04C90.32 15.04 92.48 15.68 94.144 16.96C95.808 18.24 96.752 20.016 96.976 22.288H93.28C93.056 20.976 92.448 19.968 91.456 19.264C90.464 18.56 89.152 18.208 87.52 18.208C85.952 18.208 84.736 18.512 83.872 19.12C83.008 19.696 82.576 20.528 82.576 21.616C82.576 22.448 82.88 23.168 83.488 23.776C84.128 24.384 85.184 24.896 86.656 25.312L90.496 26.368C92.768 26.976 94.48 27.904 95.632 29.152C96.784 30.4 97.36 31.904 97.36 33.664C97.36 35.808 96.544 37.488 94.912 38.704C93.28 39.888 91.024 40.48 88.144 40.48ZM120.986 49.84V34.288L121.706 34.432C121.098 36.288 119.978 37.76 118.346 38.848C116.746 39.936 114.826 40.48 112.586 40.48C110.378 40.48 108.442 39.968 106.778 38.944C105.146 37.888 103.866 36.416 102.938 34.528C102.042 32.608 101.594 30.384 101.594 27.856C101.594 25.296 102.058 23.056 102.986 21.136C103.914 19.216 105.21 17.728 106.874 16.672C108.538 15.616 110.49 15.088 112.73 15.088C115.034 15.088 116.97 15.648 118.538 16.768C120.106 17.888 121.178 19.472 121.754 21.52L121.226 21.616V15.52H124.826V49.84H120.986ZM113.306 37.12C115.77 37.12 117.69 36.288 119.066 34.624C120.474 32.928 121.178 30.624 121.178 27.712C121.178 24.864 120.474 22.608 119.066 20.944C117.658 19.28 115.738 18.448 113.306 18.448C110.874 18.448 108.97 19.28 107.594 20.944C106.218 22.608 105.53 24.912 105.53 27.856C105.53 30.736 106.218 33.008 107.594 34.672C108.97 36.304 110.874 37.12 113.306 37.12ZM132.528 40V5.44H136.368V40H132.528ZM159.083 40C158.955 39.456 158.859 38.832 158.795 38.128C158.763 37.424 158.747 36.528 158.747 35.44H158.507V23.728C158.507 21.872 158.075 20.512 157.211 19.648C156.379 18.752 155.019 18.304 153.131 18.304C151.275 18.304 149.787 18.688 148.667 19.456C147.579 20.192 146.971 21.248 146.843 22.624H143.147C143.307 20.256 144.299 18.4 146.123 17.056C147.947 15.712 150.331 15.04 153.275 15.04C156.315 15.04 158.571 15.76 160.043 17.2C161.515 18.64 162.251 20.8 162.251 23.68V35.44C162.251 36.144 162.299 36.88 162.395 37.648C162.491 38.384 162.619 39.168 162.779 40H159.083ZM150.683 40.48C148.155 40.48 146.139 39.872 144.635 38.656C143.163 37.408 142.427 35.712 142.427 33.568C142.427 31.424 143.163 29.76 144.635 28.576C146.107 27.392 148.251 26.56 151.067 26.08L159.611 24.64V27.808L151.643 29.056C149.851 29.344 148.491 29.824 147.563 30.496C146.635 31.168 146.171 32.144 146.171 33.424C146.171 34.672 146.587 35.616 147.419 36.256C148.283 36.896 149.547 37.216 151.211 37.216C153.355 37.216 155.099 36.736 156.443 35.776C157.819 34.784 158.507 33.504 158.507 31.936L159.131 35.344C158.619 36.976 157.611 38.24 156.107 39.136C154.635 40.032 152.827 40.48 150.683 40.48ZM169.653 40V5.44H173.493V40H169.653ZM190.88 40.48C188.64 40.48 186.64 39.936 184.88 38.848C183.152 37.728 181.776 36.208 180.752 34.288C179.76 32.336 179.264 30.128 179.264 27.664C179.264 25.2 179.76 23.024 180.752 21.136C181.776 19.248 183.152 17.76 184.88 16.672C186.64 15.584 188.624 15.04 190.832 15.04C192.656 15.04 194.288 15.392 195.728 16.096C197.2 16.8 198.4 17.808 199.328 19.12C200.288 20.4 200.896 21.904 201.152 23.632H197.6C197.28 22.064 196.544 20.784 195.392 19.792C194.24 18.8 192.752 18.304 190.928 18.304C189.36 18.304 188 18.688 186.848 19.456C185.696 20.224 184.8 21.312 184.16 22.72C183.52 24.128 183.2 25.776 183.2 27.664C183.2 29.552 183.52 31.216 184.16 32.656C184.8 34.096 185.696 35.216 186.848 36.016C188.032 36.816 189.408 37.216 190.976 37.216C192.736 37.216 194.208 36.736 195.392 35.776C196.576 34.784 197.328 33.504 197.648 31.936H201.2C200.912 33.632 200.272 35.136 199.28 36.448C198.32 37.728 197.12 38.72 195.68 39.424C194.24 40.128 192.64 40.48 190.88 40.48ZM206.778 40V5.44H210.618V40H206.778ZM224.298 40V23.968C224.298 22.112 223.834 20.72 222.906 19.792C221.978 18.864 220.602 18.4 218.778 18.4C217.178 18.4 215.754 18.752 214.506 19.456C213.29 20.16 212.33 21.136 211.626 22.384C210.954 23.632 210.618 25.088 210.618 26.752L209.993 20.944C210.826 19.12 212.09 17.68 213.786 16.624C215.514 15.568 217.466 15.04 219.642 15.04C222.202 15.04 224.25 15.776 225.786 17.248C227.354 18.688 228.138 20.592 228.138 22.96V40H224.298ZM245.544 40.48C243.208 40.48 241.144 39.936 239.352 38.848C237.56 37.728 236.152 36.208 235.128 34.288C234.104 32.368 233.592 30.16 233.592 27.664C233.592 25.168 234.088 22.976 235.08 21.088C236.104 19.168 237.528 17.68 239.352 16.624C241.176 15.568 243.272 15.04 245.64 15.04C247.912 15.04 249.88 15.536 251.544 16.528C253.24 17.52 254.536 18.912 255.432 20.704C256.36 22.496 256.824 24.608 256.824 27.04C256.824 27.36 256.808 27.664 256.776 27.952C256.776 28.24 256.744 28.56 256.68 28.912H236.472V25.696H254.328L253.08 27.472C253.08 24.528 252.424 22.272 251.112 20.704C249.832 19.104 248.008 18.304 245.64 18.304C243.208 18.304 241.24 19.152 239.736 20.848C238.264 22.512 237.528 24.768 237.528 27.616C237.528 30.528 238.264 32.864 239.736 34.624C241.24 36.352 243.24 37.216 245.736 37.216C247.304 37.216 248.68 36.88 249.864 36.208C251.048 35.504 251.912 34.512 252.456 33.232H256.104C255.304 35.472 253.96 37.248 252.072 38.56C250.216 39.84 248.04 40.48 245.544 40.48ZM262.606 40V15.52H266.206V21.28H266.446V40H262.606ZM279.118 40V23.776C279.118 21.92 278.702 20.56 277.87 19.696C277.038 18.832 275.838 18.4 274.27 18.4C272.798 18.4 271.47 18.752 270.286 19.456C269.102 20.16 268.158 21.136 267.454 22.384C266.782 23.632 266.446 25.088 266.446 26.752L265.822 20.944C266.654 19.12 267.902 17.68 269.566 16.624C271.23 15.568 273.038 15.04 274.99 15.04C277.358 15.04 279.278 15.744 280.75 17.152C282.222 18.528 282.958 20.4 282.958 22.768V40H279.118ZM295.63 40V23.776C295.63 21.92 295.214 20.56 294.382 19.696C293.55 18.832 292.35 18.4 290.782 18.4C289.31 18.4 287.982 18.752 286.798 19.456C285.614 20.16 284.67 21.136 283.966 22.384C283.294 23.632 282.958 25.088 282.958 26.752L281.998 20.944C282.83 19.12 284.11 17.68 285.838 16.624C287.566 15.568 289.422 15.04 291.406 15.04C293.774 15.04 295.71 15.744 297.214 17.152C298.718 18.528 299.47 20.4 299.47 22.768V40H295.63ZM307.936 49.84L313.408 37.12L314.272 35.776L322.288 15.52H326.224L312.016 49.84H307.936ZM313.84 40.24L302.848 15.52H307.072L316.528 37.648L313.84 40.24ZM327.903 28.768V25.12H344.511V28.768H327.903ZM358.741 40.432C356.021 40.432 354.037 39.824 352.789 38.608C351.573 37.36 350.965 35.568 350.965 33.232V9.808L354.805 8.368V33.184C354.805 34.56 355.157 35.568 355.861 36.208C356.565 36.848 357.717 37.168 359.317 37.168C359.957 37.168 360.501 37.136 360.949 37.072C361.429 36.976 361.813 36.864 362.101 36.736V40C361.781 40.128 361.317 40.224 360.709 40.288C360.133 40.384 359.477 40.432 358.741 40.432ZM345.925 18.784V15.52H362.101V18.784H345.925ZM376.56 40.48C374.224 40.48 372.16 39.936 370.368 38.848C368.576 37.728 367.168 36.208 366.144 34.288C365.12 32.368 364.608 30.16 364.608 27.664C364.608 25.168 365.104 22.976 366.096 21.088C367.12 19.168 368.544 17.68 370.368 16.624C372.192 15.568 374.288 15.04 376.656 15.04C378.928 15.04 380.896 15.536 382.56 16.528C384.256 17.52 385.552 18.912 386.448 20.704C387.376 22.496 387.84 24.608 387.84 27.04C387.84 27.36 387.824 27.664 387.792 27.952C387.792 28.24 387.76 28.56 387.696 28.912H367.488V25.696H385.344L384.096 27.472C384.096 24.528 383.44 22.272 382.128 20.704C380.848 19.104 379.024 18.304 376.656 18.304C374.224 18.304 372.256 19.152 370.752 20.848C369.28 22.512 368.544 24.768 368.544 27.616C368.544 30.528 369.28 32.864 370.752 34.624C372.256 36.352 374.256 37.216 376.752 37.216C378.32 37.216 379.696 36.88 380.88 36.208C382.064 35.504 382.928 34.512 383.472 33.232H387.12C386.32 35.472 384.976 37.248 383.088 38.56C381.232 39.84 379.056 40.48 376.56 40.48ZM393.621 40V15.52H397.221V21.28H397.461V40H393.621ZM411.141 40V23.968C411.141 22.112 410.677 20.72 409.749 19.792C408.821 18.864 407.445 18.4 405.621 18.4C404.021 18.4 402.597 18.752 401.349 19.456C400.133 20.16 399.173 21.136 398.469 22.384C397.797 23.632 397.461 25.088 397.461 26.752L396.837 20.944C397.669 19.12 398.933 17.68 400.629 16.624C402.357 15.568 404.309 15.04 406.485 15.04C409.045 15.04 411.093 15.776 412.629 17.248C414.197 18.688 414.981 20.592 414.981 22.96V40H411.141ZM437.239 40C437.111 39.456 437.015 38.832 436.951 38.128C436.919 37.424 436.903 36.528 436.903 35.44H436.663V23.728C436.663 21.872 436.231 20.512 435.367 19.648C434.535 18.752 433.175 18.304 431.287 18.304C429.431 18.304 427.943 18.688 426.823 19.456C425.735 20.192 425.127 21.248 424.999 22.624H421.303C421.463 20.256 422.455 18.4 424.279 17.056C426.103 15.712 428.487 15.04 431.431 15.04C434.471 15.04 436.727 15.76 438.199 17.2C439.671 18.64 440.407 20.8 440.407 23.68V35.44C440.407 36.144 440.455 36.88 440.551 37.648C440.647 38.384 440.775 39.168 440.935 40H437.239ZM428.839 40.48C426.311 40.48 424.295 39.872 422.791 38.656C421.319 37.408 420.583 35.712 420.583 33.568C420.583 31.424 421.319 29.76 422.791 28.576C424.263 27.392 426.407 26.56 429.223 26.08L437.767 24.64V27.808L429.799 29.056C428.007 29.344 426.647 29.824 425.719 30.496C424.791 31.168 424.327 32.144 424.327 33.424C424.327 34.672 424.743 35.616 425.575 36.256C426.439 36.896 427.703 37.216 429.367 37.216C431.511 37.216 433.255 36.736 434.599 35.776C435.975 34.784 436.663 33.504 436.663 31.936L437.287 35.344C436.775 36.976 435.767 38.24 434.263 39.136C432.791 40.032 430.983 40.48 428.839 40.48ZM447.809 40V15.52H451.409V21.28H451.649V40H447.809ZM465.329 40V23.968C465.329 22.112 464.865 20.72 463.937 19.792C463.009 18.864 461.633 18.4 459.809 18.4C458.209 18.4 456.785 18.752 455.537 19.456C454.321 20.16 453.361 21.136 452.657 22.384C451.985 23.632 451.649 25.088 451.649 26.752L451.025 20.944C451.857 19.12 453.121 17.68 454.817 16.624C456.545 15.568 458.497 15.04 460.673 15.04C463.233 15.04 465.281 15.776 466.817 17.248C468.385 18.688 469.169 20.592 469.169 22.96V40H465.329ZM485.679 40.432C482.959 40.432 480.975 39.824 479.727 38.608C478.511 37.36 477.903 35.568 477.903 33.232V9.808L481.743 8.368V33.184C481.743 34.56 482.095 35.568 482.799 36.208C483.503 36.848 484.655 37.168 486.255 37.168C486.895 37.168 487.439 37.136 487.887 37.072C488.367 36.976 488.751 36.864 489.039 36.736V40C488.719 40.128 488.255 40.224 487.647 40.288C487.071 40.384 486.415 40.432 485.679 40.432ZM472.863 18.784V15.52H489.039V18.784H472.863ZM502.191 40.48C499.183 40.48 496.783 39.792 494.991 38.416C493.199 37.008 492.175 35.024 491.919 32.464H495.615C495.839 34.032 496.527 35.232 497.679 36.064C498.831 36.896 500.367 37.312 502.287 37.312C503.983 37.312 505.311 36.992 506.271 36.352C507.231 35.712 507.711 34.8 507.711 33.616C507.711 32.784 507.439 32.064 506.895 31.456C506.351 30.816 505.263 30.288 503.631 29.872L499.695 28.864C497.455 28.288 495.775 27.408 494.655 26.224C493.535 25.008 492.975 23.568 492.975 21.904C492.975 19.792 493.759 18.128 495.327 16.912C496.895 15.664 499.023 15.04 501.711 15.04C504.367 15.04 506.527 15.68 508.191 16.96C509.855 18.24 510.799 20.016 511.023 22.288H507.327C507.103 20.976 506.495 19.968 505.503 19.264C504.511 18.56 503.199 18.208 501.567 18.208C499.999 18.208 498.783 18.512 497.919 19.12C497.055 19.696 496.623 20.528 496.623 21.616C496.623 22.448 496.927 23.168 497.535 23.776C498.175 24.384 499.231 24.896 500.703 25.312L504.543 26.368C506.815 26.976 508.527 27.904 509.679 29.152C510.831 30.4 511.407 31.904 511.407 33.664C511.407 35.808 510.591 37.488 508.959 38.704C507.327 39.888 505.071 40.48 502.191 40.48Z" fill="white"/>
<path d="M54.25 11.6667C54.25 15.5327 43.8406 18.6667 31 18.6667C18.1594 18.6667 7.75 15.5327 7.75 11.6667M54.25 11.6667C54.25 7.80067 43.8406 4.66666 31 4.66666C18.1594 4.66666 7.75 7.80067 7.75 11.6667M54.25 11.6667V44.3333C54.25 48.2067 43.9167 51.3333 31 51.3333C18.0833 51.3333 7.75 48.2067 7.75 44.3333V11.6667M54.25 28C54.25 31.8733 43.9167 35 31 35C18.0833 35 7.75 31.8733 7.75 28" stroke="#603CD5" stroke-width="4" stroke-linecap="round" stroke-linejoin="round"/>
</svg>
